# xmcd CD database file
# Copyright (C) 1997 Ti Kan
# 
# Track frame offsets:
#     150
#     14310
#     28880
#     43487
#     58525
#     75387
#     87000
#     101797
#     117505
#     134292
# 
# Disc length: 1981 seconds
# 
# Revision: 1
# Processed by: cddbd v1.4b41PL1 Copyright (c) Steve Scherf et al.
# Submitted via: DiscPlay 4.0.4
# 
DISCID=8107bb0a
DTITLE=Bryan White - Between Now And Forever
DYEAR=1900
DGENRE=
TTITLE0=Sittin' On Go
TTITLE1=Still Life
TTITLE2=Blindhearted
TTITLE3=Nickel In The Well
TTITLE4=I'm Not Supposed To Love You Anymore
TTITLE5=So Much For Pretending
TTITLE6=Between Now And Forever
TTITLE7=A Hundred And One
TTITLE8=On Any Given Night
TTITLE9=That's Another Song
EXTD=
EXTT0=
EXTT1=
EXTT2=
EXTT3=
EXTT4=
EXTT5=
EXTT6=
EXTT7=
EXTT8=
EXTT9=
PLAYORDER=
